<?xml version="1.0" encoding="UTF-8"?>
<svg id="Layer_2" data-name="Layer 2" xmlns="http://www.w3.org/2000/svg" viewBox="0 0 114.69 161.26">
  <defs>
    <style>
      .cls-1 {
        fill: #ed288f;
        stroke: #ed288f;
        stroke-width: .75px;
      }

      .cls-1, .cls-2, .cls-3 {
        stroke-miterlimit: 10;
      }

      .cls-2 {
        stroke: #fff;
      }

      .cls-2, .cls-3 {
        fill: none;
      }

      .cls-4 {
        fill: #f9c1ca;
      }

      .cls-5 {
        fill: #67308f;
      }

      .cls-3 {
        stroke: #f9c1ca;
        stroke-width: 2px;
      }
    </style>
  </defs>
  <g id="diskokugle">
    <g>
      <path class="cls-3" d="M40.07.06c1.37,22.2,1.2,44.5-.51,66.68"/>
      <ellipse class="cls-4" cx="40.27" cy="109.25" rx="39.08" ry="35.89"/>
      <path class="cls-5" d="M47.7,63.65c.38,0,.68.34.58.72-.08.32-.14,1.69-.16,2.03-.19,3.11-.7,4.8-1.4,7.64-4.54.06-9.09-.1-13.61-.48-.12,0-.25-.03-.31-.12-.05-.08-.04-.18-.04-.27.19-1.95-.46-3.8-.78-5.73-.1-.59-.32-2.54-.17-3.35.14-.74,2.67-.28,3.31-.29,4.13-.06,8.64-.08,12.58-.13Z"/>
      <path class="cls-2" d="M8.51,88.65s-7.85,27.44,3.21,45.41"/>
      <path class="cls-2" d="M18.79,79.58s-14.89,39.28,5.44,62.71"/>
      <path class="cls-2" d="M30.56,74.78s-14.76,46.15,4.61,70.35"/>
      <path class="cls-2" d="M40.27,73.67s10.26,53,0,71.78"/>
      <path class="cls-2" d="M52.21,75.38s18.76,36.88,4.68,66.91"/>
      <path class="cls-2" d="M73.5,128.44c6.64-19.61-3.38-42.04-3.38-42.04"/>
      <path class="cls-2" d="M22.35,77.67s23-3.86,34.55,0"/>
      <path class="cls-2" d="M11.72,85.05s25.69-7.84,54.79-2.09"/>
      <path class="cls-2" d="M4.27,95.58s42.22-12,71.51-1"/>
      <path class="cls-2" d="M1.2,109.56s33.84-17.28,77.94-3.73"/>
      <path class="cls-2" d="M4.27,123.53s32.06-16.86,73.78-4.79"/>
      <path class="cls-2" d="M14.8,136.76s16.75-14.96,55.32-4.05"/>
      <path class="cls-2" d="M22.72,141.63s23.91-8.31,39.41-2.32"/>
      <path class="cls-1" d="M102.62,100.64s-.42,10.14-11.34,11.12c0,0,10.91.36,11.44,10.88,0,0,1.18-10.62,11.93-11.04,0,0-11.89.78-12.04-10.97Z"/>
      <path class="cls-1" d="M77.29,144.59s2.46,7.72-4.09,10.89c0,0,6.91-2.16,10.06,5.64,0,0-2.12-8.25,4.48-10.96,0,0-7.21,3.23-10.46-5.57Z"/>
      <path class="cls-1" d="M80.26,71.31s-.25,5.07-6.85,5.56c0,0,6.59.18,6.91,5.44,0,0,.71-5.31,7.21-5.52,0,0-7.19.39-7.28-5.48Z"/>
      <path class="cls-1" d="M63.51,124.75s-2.2,4.2-6.61,2.61c0,0,4.14,2.16,2.22,6.7,0,0,2.59-4.27,6.83-2.46,0,0-4.75-1.86-2.44-6.85Z"/>
      <path class="cls-1" d="M39.82,99.14s-.24,7.63-6.51,8.37c0,0,6.27.27,6.57,8.19,0,0,.68-8,6.85-8.31,0,0-6.83.58-6.92-8.25Z"/>
      <path class="cls-1" d="M11.37,46.84s-.42,10.14-11.34,11.12c0,0,10.91.36,11.44,10.88,0,0,1.18-10.62,11.93-11.04,0,0-11.89.78-12.04-10.97Z"/>
      <path class="cls-1" d="M6.74,140.25s-.2,4-5.5,4.39c0,0,5.29.14,5.55,4.29,0,0,.57-4.19,5.79-4.35,0,0-5.77.31-5.84-4.32Z"/>
      <path class="cls-1" d="M20.54,121.82s-1.98,6.02-8.81,4.72c0,0,6.6,2.1,5.13,8.52,0,0,2.53-6.18,9.16-4.57,0,0-7.39-1.59-5.48-8.67Z"/>
      <path class="cls-1" d="M23.71,76.18s1.81,6.31-2.69,8.4c0,0,4.75-1.26,7.04,5.16,0,0-1.57-6.72,2.96-8.43,0,0-4.95,2.1-7.31-5.13Z"/>
    </g>
  </g>
</svg>