<?xml version="1.0" encoding="UTF-8"?>
<svg id="Layer_2" data-name="Layer 2" xmlns="http://www.w3.org/2000/svg" viewBox="0 0 173.63 252.52">
  <defs>
    <style>
      .cls-1, .cls-2 {
        fill: #f8bdd5;
      }

      .cls-3, .cls-4, .cls-5, .cls-6, .cls-7, .cls-8, .cls-9, .cls-10, .cls-11, .cls-12, .cls-2, .cls-13, .cls-14, .cls-15, .cls-16, .cls-17 {
        stroke-miterlimit: 10;
      }

      .cls-3, .cls-4, .cls-6, .cls-7, .cls-8, .cls-11, .cls-16, .cls-17 {
        fill: none;
      }

      .cls-3, .cls-12 {
        stroke: #f5a5c4;
      }

      .cls-4, .cls-5, .cls-2, .cls-16, .cls-17 {
        stroke: #524160;
      }

      .cls-5 {
        fill: #524160;
      }

      .cls-6, .cls-7, .cls-15 {
        stroke: #fff;
      }

      .cls-18 {
        fill: #cddbf1;
      }

      .cls-7 {
        stroke-width: 3px;
      }

      .cls-8, .cls-13 {
        stroke: #f0d18f;
      }

      .cls-9 {
        stroke: #f8f5b4;
      }

      .cls-9, .cls-19 {
        fill: #f8f5b4;
      }

      .cls-10 {
        fill: #acd5ee;
      }

      .cls-10, .cls-11 {
        stroke: #a0c8dd;
      }

      .cls-12 {
        fill: #f5a5c4;
      }

      .cls-20, .cls-15 {
        fill: #fff;
      }

      .cls-2, .cls-16 {
        stroke-width: .5px;
      }

      .cls-13 {
        fill: #f2dba2;
      }

      .cls-14 {
        fill: #c0a0cc;
        stroke: #c0a0cc;
      }

      .cls-21 {
        fill: #dabfdc;
      }

      .cls-17 {
        stroke-width: .75px;
      }
    </style>
  </defs>
  <g id="diskokugle">
    <g>
      <ellipse class="cls-15" cx="171.47" cy="70.53" rx="1.65" ry="1.6"/>
      <ellipse class="cls-15" cx="82.71" cy="231.47" rx="1.34" ry="1.3"/>
      <ellipse class="cls-15" cx="72.68" cy="225.22" rx="1.34" ry="1.3"/>
      <path class="cls-13" d="M4.78,239.06c.44-15.92,1.14-31.84,2.11-47.74-1.4.14-2.81.18-4.2.03-1.24-.13-2.19-1.15-2.19-2.36,0-3.66,0-7.34,0-11,0-1.68,1.4-3.07,3.14-3.07,18.81-.06,37.62,1.34,56.3,1.07,2.14-.03,4.51-.02,6.71.02,1.61.03,2.91,1.29,2.94,2.85.06,3.72.17,6.68.48,10.38.14,1.65-1.11,3.11-2.8,3.27-.76.08-1.51.16-2.26.29.26,15.59.62,31.15,1.32,46.72.09,2.07-1.59,3.83-3.73,3.86-18.45.26-37.08-.38-55.44-1.86-.01,0-.03,0-.04,0-1.33-.1-2.36-1.17-2.33-2.47Z"/>
      <path class="cls-13" d="M5.29,190.98c19.86,2.65,40.03,3.11,60,1.36"/>
      <line class="cls-8" x1="6.31" y1="201.38" x2="6.31" y2="201.38"/>
      <line class="cls-7" x1="65.21" y1="203.99" x2="6.31" y2="202.97"/>
      <line class="cls-7" x1="65.21" y1="215.62" x2="6.31" y2="214.6"/>
      <line class="cls-7" x1="64.74" y1="229.51" x2="5.84" y2="228.49"/>
      <path class="cls-5" d="M28.09,174.9h1.35s-9.51-8.06-9.15-13.71.36-6.47,2.05-5.81,9.67,11.17,9.4,15.51l.58,4.02h1.43s-1.72-14.58-3.07-15.73-4.53-7.14-6.14-7.15-4.89-1.16-5.74-.02-2.89,5.23-2.22,7.12,2.42,7.54,6.46,11.24,5.05,4.52,5.05,4.52Z"/>
      <path class="cls-5" d="M33.87,174.89l5.4-.2s16.11-4.93,15.79-8.69.66-6.99-3.03-8.33c-3.68-1.34-7.51-1.34-9.41-.8-2.1.6-5.31,2.49-6.23,4.82s-3.35,7.17-3.35,7.17l.76,4.4s1.17-5.05,3.75-8.69c-.27-.52,3.63-3.42,6.76-4.19,5.37-1.32,10.65,1.43,6.73,5.74,0,0-1.67,2.22-5.01,3.49-3.74,1.43-12.17,5.29-12.17,5.29Z"/>
      <path class="cls-17" d="M7.73,199.96c1.68,1.85,4.74,1.74,7.09.8,2.92-1.16,5.32-3.29,7.41-5.58,1.5-1.64,2.95-3.61,2.79-5.8-.05-.71-.31-1.45-.9-1.88s-1.54-.42-1.97.16c-.49.66-.04,1.66.71,2.02s1.64.25,2.44.05c2.21-.57,4.38-1.97,5.04-4.09s-.84-4.85-3.13-4.89c-.35,0-.7.05-1,.22-1.18.68-.56,2.63.69,3.15,1.98.82,4.31-.78,4.99-2.77s.19-4.15-.3-6.18c.19,2.08,1.92,4.05,3.97,4.7.64.21,1.37.29,1.98.02s1.05-.99.81-1.6c-.91-.16-1.59.97-1.35,1.84s1,1.49,1.67,2.1c.73.66,1.41,1.38,2.26,1.87s1.95.71,2.84.28,1.37-1.65.77-2.42c-.52.68-.33,1.69.21,2.35s1.35,1.06,2.14,1.42c1.33.6,2.72,1.17,4.18,1.25s3.04-.39,3.92-1.52"/>
      <path class="cls-10" d="M91.46,240.13c.44-15.92,1.14-31.84,2.11-47.74-1.4.14-2.81.18-4.2.03-1.24-.13-2.19-1.15-2.19-2.36,0-3.66,0-7.34,0-11,0-1.68,1.4-3.07,3.14-3.07,18.81-.06,37.62,1.34,56.3,1.07,2.14-.03,4.51-.02,6.71.02,1.61.03,2.91,1.29,2.94,2.85.06,3.72.17,6.68.48,10.38.14,1.65-1.11,3.11-2.8,3.27-.76.08-1.51.16-2.26.29.26,15.59.62,31.15,1.32,46.72.09,2.07-1.59,3.83-3.73,3.86-18.45.26-37.08-.38-55.44-1.86-.01,0-.03,0-.04,0-1.33-.1-2.36-1.17-2.33-2.47Z"/>
      <path class="cls-14" d="M97.82,175.13c.63-3.91-.38-7.45,5.29-5.5s7.3,2.47,7.3,2.47c0,0-9.82-7.36-4.53-11.39s5.91-2.56,5.91-2.56c0,0,5.79,9.04,5.79,11.48s-1.96-11.35,0-12.46c3.02-1.71,8.05-2.93,8.81-1.47s.13,12.09-1.38,13.56,4.78-12.46,7.05-11.73,8.18,3.42,6.8,6.23-6.54,8.67-7.42,9.04,9.82-5.37,12.71-2.93c2.89,2.44,1.76,6.1,1.76,6.1l-48.07-.85Z"/>
      <path class="cls-11" d="M93.57,192.39c10.59.98,22.49,1.78,33.13,1.7,4.25-.03,8.5-.15,12.75-.26,2.62-.07,9.62.13,12.23.06"/>
      <path class="cls-6" d="M93.22,210.92c4.9-.28,9.78.59,14.64,1.26,14.19,1.97,28.62,2.25,42.88.84"/>
      <path class="cls-6" d="M92.79,225.53c3.41,1.21,6.98,2.02,10.59,2.42,2.02.22,4.11.31,6.03-.34s3.64-2.17,3.96-4.12c.34-2.08-1.86-4.48-3.82-3.56-1.16.54-1.64,1.99-1.34,3.21s1.23,2.19,2.26,2.94c4.71,3.4,12.26,2.11,15.49-2.65.2-.29.38-.6.43-.94.11-.86-.73-1.61-1.6-1.76s-1.76.14-2.6.43c.23,3.58,2.82,6.9,6.3,8.09s7.65.16,10.13-2.49c1.17-1.25,1.98-3.08,1.28-4.63-1.09-.39-2.33-.37-3.4.07-.62,1.74.51,3.71,2.13,4.66s3.6,1.09,5.5,1.1c2.34.01,4.69-.15,7.01-.48"/>
      <path class="cls-6" d="M92.98,235.66c18.51-.8,37.11,3.6,55.48,1.24"/>
      <path class="cls-6" d="M93.45,203.28c3.41,1.21,6.98,2.02,10.59,2.42,2.02.22,4.11.31,6.03-.34s3.64-2.17,3.96-4.12c.34-2.08-1.86-4.48-3.82-3.56-1.16.54-1.64,1.99-1.34,3.21s1.23,2.19,2.26,2.94c4.71,3.4,12.26,2.11,15.49-2.65.2-.29.38-.6.43-.94.11-.86-.73-1.61-1.6-1.76s-1.76.14-2.6.43c.23,3.58,2.82,6.9,6.3,8.09s7.65.16,10.13-2.49c1.17-1.25,1.98-3.08,1.28-4.63-1.09-.39-2.33-.37-3.4.07-.62,1.74.51,3.71,2.13,4.66s3.6,1.09,5.5,1.1c2.34.01,4.69-.15,7.01-.48"/>
      <path class="cls-9" d="M58.23,227.63c.32,2.56.2,4.12.29,7.35.13,4.69.86,9.58.83,14.25,0,.29.19.54.48.61,6.66,1.73,13.61,2.44,20.5,2.1,5.25-.26,10.46-1.12,15.7-1.44,1.5-.09,2.77-1.13,3.09-2.55,2.23-10.09,2.57-20.56,1.02-30.77-.2-1.29-1.35-2.25-2.69-2.27-6.89-.1-13.77-.07-20.66.09-3.86.09-7.72.22-11.58.39-2.24.1-6.59-1.1-7.25,1.9-.65,2.94-.07,7.47.28,10.34Z"/>
      <path class="cls-12" d="M54.63,214.2c-.2.75.94,1.45,1.88,1.88.46.21.97.33,1.48.35,14.85.6,29.58-.08,44.11-.4.76-.02,1.44-.47,1.72-1.16.96-2.38.94-5.13-.07-7.5-.27-.63-.87-1.07-1.57-1.14-6.74-.64-11.23-.42-18.31.01-2.82.17-.62.04-5.39.17-.7.02-4.12.1-4.76.07-1.29-.06-6.97-.16-8.26-.2-3.77-.12-5.69-.19-7.69.07-1.46.19-2.91,1.47-3.21,2.87-.32,1.48-.41,3-.25,4.5.04.37.1.75.29,1.08.49.85,1.67,1.04,2.66.91"/>
      <path class="cls-5" d="M77.55,205.31h1.35s-9.51-8.06-9.15-13.71c.36-5.65.36-6.47,2.05-5.81,1.69.66,9.67,11.17,9.4,15.51l.58,4.02h1.43s-1.72-14.58-3.07-15.73-4.53-7.14-6.14-7.15-4.89-1.16-5.74-.02-2.89,5.23-2.22,7.12,2.42,7.54,6.46,11.24c4.04,3.7,5.05,4.52,5.05,4.52Z"/>
      <path class="cls-5" d="M83.32,205.3l5.4-.2s16.11-4.93,15.79-8.69c-.31-3.76.66-6.99-3.03-8.33-3.68-1.34-7.51-1.34-9.41-.8-2.1.6-5.31,2.49-6.23,4.82-.92,2.33-3.35,7.17-3.35,7.17l.76,4.4s1.17-5.05,3.75-8.69c-.27-.52,3.63-3.42,6.76-4.19,5.37-1.32,10.65,1.43,6.73,5.74,0,0-1.67,2.22-5.01,3.49-3.74,1.43-12.17,5.29-12.17,5.29Z"/>
      <ellipse class="cls-15" cx="62.02" cy="223.2" rx="1.65" ry="1.6"/>
      <ellipse class="cls-15" cx="82.5" cy="229.02" rx="1.65" ry="1.6"/>
      <ellipse class="cls-15" cx="63.58" cy="238.02" rx="1.65" ry="1.6"/>
      <ellipse class="cls-15" cx="84.05" cy="246.63" rx="1.65" ry="1.6"/>
      <ellipse class="cls-15" cx="76.89" cy="220.13" rx="1.65" ry="1.6"/>
      <ellipse class="cls-15" cx="90.99" cy="237.23" rx="1.65" ry="1.6"/>
      <ellipse class="cls-15" cx="70.08" cy="230.63" rx="1.65" ry="1.6"/>
      <ellipse class="cls-15" cx="61.93" cy="247.41" rx="1.65" ry="1.6"/>
      <ellipse class="cls-15" cx="98.1" cy="220.71" rx="1.65" ry="1.6"/>
      <ellipse class="cls-15" cx="94.29" cy="245.81" rx="1.65" ry="1.6"/>
      <ellipse class="cls-15" cx="93.97" cy="228.63" rx="1.65" ry="1.6"/>
      <ellipse class="cls-15" cx="72.99" cy="242.95" rx="1.65" ry="1.6"/>
      <ellipse class="cls-15" cx="80.19" cy="238.02" rx="1.65" ry="1.6"/>
      <path class="cls-15" d="M88.64,221.48c.75.51.92,1.51.4,2.23s-1.56.9-2.3.39-.92-1.51-.4-2.23,1.56-.9,2.3-.39Z"/>
      <path class="cls-17" d="M109.56,222.04c-2.48-.04-5.03-.32-7.22-1.46s-3.96-3.27-4.02-5.68c-.01-.45.04-.92.32-1.28s.84-.53,1.22-.28c-.12.82-1.06,1.25-1.89,1.42-1.92.37-4,.06-5.65-.97s-2.84-2.76-3.07-4.65c-.04-.31-.04-.66.17-.9.37-.42,1.19-.14,1.33.4s-.24,1.1-.75,1.35-1.11.25-1.68.21c-1.38-.09-2.81-.4-3.87-1.26s-1.62-2.4-1.01-3.6c-1.66,3.65-6.15,6.17-10.17,6.99-.5.1-1.02.18-1.5.02s-.87-.65-.75-1.13c.14-.55.93-.76,1.44-.48s.75.89.77,1.46c.07,1.73-1.4,3.12-2.77,4.23-2.78,2.23-5.93,4.43-9.53,4.52-.35-.64.64-1.35,1.33-1.05s.98,1.08,1.1,1.8c.4,2.25-.08,4.65-1.34,6.58"/>
      <line class="cls-8" x1="61.04" y1="213.99" x2="61.04" y2="213.99"/>
      <path class="cls-4" d="M62.74,174.59c-.62-1.01-1.27-2-1.82-3.05-2.15-4.1-2.66-8.97-1.41-13.41.96-3.4,1.62-6.89,2.3-10.36.43-2.22.79-4.59-.12-6.67-.59-1.36-1.66-2.45-2.61-3.6-4.21-5.14-6.07-12.54-3.04-18.41"/>
      <path class="cls-18" d="M52.44,122.93s-4.26,2.51-3.95-.89,3.95-5.61,3.95-5.61c0,0-22.5-9.3-23.41-30.1s2.28-27,8.67-31.58c6.39-4.57,13.68-7.53,25.69-5.02,12.01,2.51,19.16,15.2,19.16,15.2,0,0,5.47,15.64-1.52,27.74s-17.79,21.25-19.46,21.99-3.95,1.33-3.95,1.33c0,0,3.8,4.43,3.19,5.31s-.76,1.77-1.82,1.18-.15-1.48-1.06-.59-1.67,2.21-2.28,2.66-3.5-1.03-3.19-1.62Z"/>
      <path class="cls-16" d="M52.38,118.49c-.2.3-.39.71-.14.97.11.12.29.16.45.16.63,0,1.1-.57,1.36-1.12.32-.69.47-1.45.43-2.21.1-.06.23.03.27.13s.05.22.11.32c.06.1.17.17.27.23,1.38.8,2.98,1.23,4.58,1.24.37,0,.87-.13.86-.5,0-.31-.39-.46-.7-.53-1.73-.39-3.45-.78-5.18-1.17,1.2-.09,2.41-.03,3.6.17-1.45-.24-3.06.46-4.56.11.15-.04.33,0,.48.03,0,.43-.6.67-.9.96-.37.35-.65.79-.93,1.21Z"/>
      <polygon class="cls-19" points="36.64 68.04 37.9 65.5 36.28 63.31 39.11 63.57 40.85 61.3 41.34 63.99 44.03 64.79 41.51 66.19 41.43 68.95 39.38 67.12 36.64 68.04"/>
      <polygon class="cls-19" points="59.9 59.21 61.16 56.68 59.54 54.49 62.37 54.75 64.11 52.48 64.6 55.17 67.29 55.96 64.77 57.37 64.69 60.13 62.64 58.3 59.9 59.21"/>
      <polygon class="cls-19" points="47.15 82.66 48.41 80.12 46.79 77.93 49.62 78.19 51.36 75.92 51.85 78.61 54.54 79.4 52.02 80.81 51.94 83.57 49.89 81.74 47.15 82.66"/>
      <polygon class="cls-19" points="63.1 92.14 64.36 89.61 62.74 87.42 65.57 87.68 67.31 85.41 67.8 88.1 70.49 88.89 67.96 90.3 67.89 93.05 65.84 91.23 63.1 92.14"/>
      <polygon class="cls-19" points="70.85 75.68 72.11 73.15 70.49 70.96 73.32 71.21 75.06 68.95 75.55 71.64 78.24 72.43 75.71 73.83 75.64 76.59 73.59 74.77 70.85 75.68"/>
      <polygon class="cls-19" points="36.33 99.79 37.59 97.26 35.97 95.06 38.8 95.32 40.54 93.05 41.03 95.74 43.72 96.54 41.2 97.94 41.12 100.7 39.07 98.87 36.33 99.79"/>
      <polygon class="cls-19" points="53.97 107.43 55.23 104.9 53.61 102.71 56.44 102.96 58.18 100.7 58.66 103.39 61.36 104.18 58.83 105.58 58.76 108.34 56.71 106.52 53.97 107.43"/>
      <path class="cls-1" d="M101.66,156.32s4.26,2.52,3.95-.89-3.95-5.64-3.95-5.64c0,0,22.5-9.35,23.41-30.27.91-20.92-2.28-27.15-8.66-31.75-6.38-4.6-13.68-7.57-25.69-5.04-12.01,2.52-19.15,15.28-19.15,15.28,0,0-5.47,15.73,1.52,27.89,6.99,12.17,17.78,21.37,19.46,22.11s3.95,1.34,3.95,1.34c0,0-3.8,4.45-3.19,5.34s.76,1.78,1.82,1.19.15-1.48,1.06-.59,1.67,2.23,2.28,2.67,3.5-1.04,3.19-1.63Z"/>
      <path class="cls-2" d="M101.72,151.85c.2.3.39.71.14.98-.11.12-.29.16-.45.16-.63,0-1.1-.57-1.36-1.13-.32-.69-.47-1.46-.43-2.22-.1-.06-.23.03-.27.14s-.05.22-.11.32c-.06.1-.17.17-.27.23-1.38.8-2.97,1.24-4.58,1.25-.37,0-.87-.13-.86-.5,0-.31.39-.47.7-.54,1.73-.39,3.45-.78,5.18-1.18-1.2-.09-2.41-.03-3.6.17,1.45-.25,3.06.46,4.56.11-.15-.04-.33,0-.48.03,0,.43.6.68.9.96.37.36.65.8.93,1.22Z"/>
      <path class="cls-4" d="M99.07,157.91c-2,2.9-1.88,6.69-1.27,10.12.61,3.43,1.66,6.87,1.27,10.34-.37,3.23-1.95,6.19-3.14,9.23-1.19,3.04-1.99,6.47-.78,9.5,1.17,2.91,4.15,5.53,3.31,8.54"/>
      <path class="cls-3" d="M74.11,94.39c6.52.29,13.29.53,19.29-1.96.23-.1.48-.21.61-.42.23-.37-.03-.89-.42-1.1s-.87-.2-1.32-.18c-.58.02-1.37.27-1.28.82.03.18.15.33.28.46,2.9,3.12,7.8,3.38,12.11,3.05,3.27-.25,6.81-.85,9-3.23-.82-.04-1.64-.07-2.46-.11-.41.95.84,1.74,1.87,2,3.23.83,6.63,1.06,9.95.66"/>
      <path class="cls-3" d="M69.87,108.77c2.1-.32,4.24.11,6.36.03s4.46-.85,5.37-2.71c-.41.07-.82-.11-1.24-.13s-.92.24-.87.65c.02.2.18.35.33.49,2.51,2.22,6.35,2.28,9.67,1.59,4.14-.86,8.06-2.69,11.34-5.29-.81-.21-1.84-.27-2.35.38-.74.95.37,2.24,1.46,2.76,2.64,1.26,5.71,1.24,8.64,1,1.31-.11,2.65-.27,3.8-.89s2.04-1.83,1.9-3.1c-.49.04-.95.38-1.13.83.48.88.93,1.69,1.83,2.17.61.33,1.33.4,2.03.46,2.66.2,5.34.12,7.98-.23-.13-.21-.33-.38-.56-.48"/>
      <path class="cls-3" d="M71.84,122.27c4.27.4,8.59.45,12.87.13.64-.05,1.31-.11,1.86-.43s.94-.98.74-1.58c-.52-.23-1.09-.47-1.65-.36s-1.05.73-.79,1.22c.14.26.43.4.71.52,2.9,1.18,6.13,1.23,9.28,1.27,2.63.03,5.4.02,7.68-1.25.59-.33,1.21-.97.91-1.57-.85-.46-2.07.38-1.91,1.31,1.96,1.14,4.39,1.24,6.66.96s4.49-.89,6.77-1.07c1.38-.11,2.8-.06,4.1-.52s2.48-1.61,2.4-2.95c-.77.12-1.37.9-1.27,1.65s.88,1.36,1.66,1.28c.99-.1,2.01.17,3,.28"/>
      <path class="cls-3" d="M81.74,136.85c2.81.15,5.62.08,8.42-.19.75-.07,1.53-.17,2.16-.57s1.07-1.19.81-1.88c-.79-.52-2.05-.09-2.34.79,5.19,3.08,12.24,2.9,17.25-.44.57-.38,1.16-.89,1.16-1.56-.68-.26-1.44-.33-2.16-.2-.42.36.14.99.65,1.22,3.67,1.69,8.05,1.87,11.86.5"/>
      <path class="cls-21" d="M24.5,74.52s-4.35,2.52-4.04-.89,4.04-5.64,4.04-5.64c0,0-22.97-9.35-23.91-30.27C-.34,16.8,2.92,10.57,9.44,5.97,15.96,1.37,23.41-1.6,35.67.92c12.26,2.52,19.56,15.28,19.56,15.28,0,0,5.59,15.73-1.55,27.89-7.14,12.17-18.16,21.37-19.87,22.11s-4.04,1.34-4.04,1.34c0,0,3.88,4.45,3.26,5.34s-.78,1.78-1.86,1.19-.16-1.48-1.09-.59-1.71,2.23-2.33,2.67-3.57-1.04-3.26-1.63Z"/>
      <path class="cls-2" d="M24.44,70.05c-.2.3-.39.71-.14.98.11.12.29.16.46.16.64,0,1.12-.57,1.39-1.13.33-.69.48-1.46.44-2.22.1-.06.23.03.28.14s.05.22.11.32c.06.1.17.17.28.23,1.4.8,3.04,1.24,4.67,1.25.38,0,.88-.13.88-.5,0-.31-.4-.47-.72-.54-1.76-.39-3.53-.78-5.29-1.18,1.23-.09,2.46-.03,3.67.17-1.48-.25-3.12.46-4.65.11.16-.04.34,0,.49.03,0,.43-.61.68-.92.96-.38.36-.67.8-.95,1.22Z"/>
      <path class="cls-4" d="M27.14,76.11c2.04,2.9,1.92,6.69,1.3,10.12-.63,3.43.61,7.04.44,10.52-.39,7.64,0,24.34,0,27.61,0,3.89-2.29,12.33-3.25,15.46-2.2,7.12.56,30.63,1.41,33.65"/>
      <path class="cls-20" d="M9.42,17.37c1.93,0,1.93-3,0-3s-1.93,3,0,3h0Z"/>
      <path class="cls-20" d="M26.68,11.95c1.93,0,1.93-3,0-3s-1.93,3,0,3h0Z"/>
      <path class="cls-20" d="M29.05,32.6c1.93,0,1.93-3,0-3s-1.93,3,0,3h0Z"/>
      <path class="cls-20" d="M47.34,32.94c1.93,0,1.93-3,0-3s-1.93,3,0,3h0Z"/>
      <path class="cls-20" d="M47.34,23.46c1.93,0,1.93-3,0-3s-1.93,3,0,3h0Z"/>
      <path class="cls-20" d="M17.88,24.14c1.93,0,1.93-3,0-3s-1.93,3,0,3h0Z"/>
      <path class="cls-20" d="M39.55,11.95c1.93,0,1.93-3,0-3s-1.93,3,0,3h0Z"/>
      <path class="cls-20" d="M31.42,23.12c1.93,0,1.93-3,0-3s-1.93,3,0,3h0Z"/>
      <path class="cls-20" d="M43.28,49.19c1.93,0,1.93-3,0-3s-1.93,3,0,3h0Z"/>
      <path class="cls-20" d="M26.01,54.95c1.93,0,1.93-3,0-3s-1.93,3,0,3h0Z"/>
      <path class="cls-20" d="M12.46,46.82c1.93,0,1.93-3,0-3s-1.93,3,0,3h0Z"/>
      <path class="cls-20" d="M6.71,32.6c1.93,0,1.93-3,0-3s-1.93,3,0,3h0Z"/>
      <path class="cls-20" d="M25.67,39.71c1.93,0,1.93-3,0-3s-1.93,3,0,3h0Z"/>
      <path class="cls-20" d="M41.92,39.38c1.93,0,1.93-3,0-3s-1.93,3,0,3h0Z"/>
      <path class="cls-20" d="M35.15,59.69c1.93,0,1.93-3,0-3s-1.93,3,0,3h0Z"/>
      <path class="cls-20" d="M19.57,60.37c1.93,0,1.93-3,0-3s-1.93,3,0,3h0Z"/>
      <path class="cls-20" d="M17.2,6.19c1.93,0,1.93-3,0-3s-1.93,3,0,3h0Z"/>
      <path class="cls-20" d="M34.81,48.52c1.93,0,1.93-3,0-3s-1.93,3,0,3h0Z"/>
      <path class="cls-20" d="M9.42,55.97c1.93,0,1.93-3,0-3s-1.93,3,0,3h0Z"/>
      <path class="cls-20" d="M17.54,32.26c1.93,0,1.93-3,0-3s-1.93,3,0,3h0Z"/>
      <path class="cls-20" d="M49.71,14.32c1.93,0,1.93-3,0-3s-1.93,3,0,3h0Z"/>
      <path class="cls-20" d="M53.09,42.08c1.93,0,1.93-3,0-3s-1.93,3,0,3h0Z"/>
    </g>
  </g>
</svg>