<?xml version="1.0" encoding="UTF-8"?>
<svg id="Layer_2" data-name="Layer 2" xmlns="http://www.w3.org/2000/svg" viewBox="0 0 102.88 170.78">
  <defs>
    <style>
      .cls-1, .cls-2, .cls-3, .cls-4, .cls-5, .cls-6, .cls-7, .cls-8, .cls-9, .cls-10, .cls-11, .cls-12, .cls-13, .cls-14, .cls-15, .cls-16, .cls-17 {
        stroke-miterlimit: 10;
      }

      .cls-1, .cls-3, .cls-12, .cls-14 {
        stroke: #0a85bf;
      }

      .cls-1, .cls-3, .cls-13 {
        fill: #acd5ee;
      }

      .cls-2, .cls-3, .cls-8, .cls-14 {
        stroke-width: 2px;
      }

      .cls-2, .cls-4, .cls-5, .cls-6, .cls-7, .cls-10, .cls-11, .cls-12, .cls-14, .cls-15, .cls-16, .cls-17 {
        fill: none;
      }

      .cls-2, .cls-8 {
        stroke: #f5a5c4;
      }

      .cls-4 {
        stroke: #ef4967;
      }

      .cls-4, .cls-11, .cls-15, .cls-16, .cls-17 {
        stroke-width: 3px;
      }

      .cls-5 {
        stroke: #cdebf2;
      }

      .cls-6 {
        stroke: #96bec2;
      }

      .cls-7 {
        stroke: #010101;
        stroke-width: .25px;
      }

      .cls-8 {
        fill: #f5dcea;
      }

      .cls-9 {
        fill: #efcbe1;
      }

      .cls-9, .cls-17 {
        stroke: #efcbe1;
      }

      .cls-10 {
        stroke: #f5dcea;
        stroke-width: .5px;
      }

      .cls-11 {
        stroke: #feef92;
      }

      .cls-18 {
        fill: #ffca1e;
      }

      .cls-13 {
        stroke: #acd5ee;
      }

      .cls-15 {
        stroke: #f6a949;
      }

      .cls-16 {
        stroke: #93c9e5;
      }
    </style>
  </defs>
  <g id="diskokugle">
    <g>
      <path class="cls-1" d="M3.15,121.35s-7.25,15.5,2.23,18.3c9.48,2.81,11.35-5.22,11.35-5.22,0,0,2.14,22.98,15.5,3.35,0,0,4.04,18.24,14.19,9.26,1.86-1.64,3.92-4.19,6.2-7.93,0,0,5.93,22.44,17.68.27,0,0,7.88,22.31,18.03-1.07.3,1.47,16.35,18.65,13.76-13.7"/>
      <path class="cls-3" d="M44.64,157.78c-5.42-.7-18.01,3.98-14.38,7.46s22.78,5.32,28.54,4.23c5.76-1.09,11.88.98,13.83-2.82,1.95-3.8-16.04-8.69-16.04-8.69l-.26-9.56-4.36-10.26-6.2,9.71s-.04,10.07-1.13,9.93Z"/>
      <path class="cls-14" d="M6.51,133.55l-1.5,2.35"/>
      <path class="cls-14" d="M24.8,139.05l-2.22,3.09"/>
      <path class="cls-14" d="M40.05,142.86c.13.91.16,1.84.08,2.75"/>
      <path class="cls-14" d="M61.51,143.79c.11.99,0,2-.3,2.94"/>
      <path class="cls-14" d="M80.17,142.14v2.56"/>
      <path class="cls-14" d="M96.36,138.15c.36,1.03.9,2,1.59,2.85"/>
      <path class="cls-14" d="M34.96,140.69c.55-.16,1.16-.09,1.65.2"/>
      <path class="cls-14" d="M40.43,141.25c.72-.04,1.44.05,2.13.26"/>
      <path class="cls-14" d="M39.04,139.54v-1.39"/>
      <path class="cls-14" d="M62.56,142.86h1.5"/>
      <path class="cls-14" d="M59.03,143.28h-1.39"/>
      <path class="cls-14" d="M60.96,141.15v-1.28"/>
      <path class="cls-14" d="M78.49,141.47c-.68-.06-1.36-.02-2.03.1"/>
      <path class="cls-14" d="M81.38,141.47h1.6"/>
      <path class="cls-14" d="M79.53,140.18c.13-.5.08-1.04-.13-1.51"/>
      <path class="cls-14" d="M96.34,136.98c.47.05.95-.03,1.38-.24"/>
      <path class="cls-14" d="M94.63,137.81l-1.5.31"/>
      <path class="cls-14" d="M95.03,136.01c.2-.75-.04-1.6-.61-2.13"/>
      <path class="cls-14" d="M23.86,137.73c-.61.08-1.26-.12-1.71-.53"/>
      <path class="cls-14" d="M26.65,139.18c.99.12,1.96.4,2.86.84"/>
      <path class="cls-14" d="M26.07,137.08c.08-.86.43-1.7.97-2.37"/>
      <path class="cls-14" d="M7.62,133.75c.62.04,1.22.28,1.7.67"/>
      <path class="cls-14" d="M5.15,132.19c-.8-.19-1.57-.51-2.27-.94"/>
      <path class="cls-14" d="M7.34,131.91c.5-.74,1.14-1.39,1.86-1.9"/>
      <path class="cls-1" d="M102.2,123.15c-2.2,2.21-5.18,3.42-8.07,4.58-1.74.7-3.48,1.39-5.23,2.09-2.84,1.14-5.79,1.83-8.82,2.32-26.03,4.19-53.34.02-76.93-11.75.6-3.41,3.47-5.58,6.75-6.69s6.81-1.13,10.26-1.43c2.81-.25,5.59-.7,8.37-1.14.59-.09,1.24-.23,1.58-.72,8.83-.81,17.57-1.08,26.44-1.04,7.3.03,14.47,2.03,21.63,3.45,4.67.93,9.25,2.32,13.71,4,3.95,1.5,7.66,3.03,10.3,6.33Z"/>
      <path class="cls-12" d="M44.61,157.93c.18,1.01,1.44,1.67,2.37,1.23.14-.07.27-.15.42-.19.35-.09.7.1,1.03.25.99.46,2.33.56,3.06-.25.47.8,1.49,1.07,2.42,1.12.51.03,1.03,0,1.5-.2s.85-.65.87-1.16"/>
      <path class="cls-14" d="M47.92,149.79c-.05.78-.03,1.57.05,2.35"/>
      <path class="cls-14" d="M50.71,150.06v3.7"/>
      <path class="cls-14" d="M53.69,150.15v2.62"/>
      <path class="cls-14" d="M36.18,163.56v-.18"/>
      <path class="cls-14" d="M41.14,164.83c.08,0,.08.16,0,.15"/>
      <path class="cls-14" d="M45.57,165.32l.34.37"/>
      <path class="cls-14" d="M52.46,166.04c-.35.12-.48.65-.22.92"/>
      <path class="cls-14" d="M60.28,166.4c.09-.52-.63-.97-1.06-.65-.08.19-.06.42.04.6.34.17.81.03,1-.3"/>
      <path class="cls-14" d="M64.49,164.62l.54-.65v.65"/>
      <path class="cls-14" d="M35.93,163.36c.13.35.62.51.93.3.09-.06.16-.17.11-.26-.03-.06-.11-.09-.19-.1-.29-.05-.59-.02-.87.08"/>
      <path class="cls-14" d="M41.14,164.79c.11.18.24.37.43.45s.48-.03.48-.24c0-.17-.17-.3-.34-.32s-.33.06-.49.14"/>
      <path class="cls-14" d="M45.73,165.37l-.35.02c.07.27.31.48.59.5s.55-.14.66-.39c.04-.09.06-.19.04-.28-.05-.23-.34-.35-.57-.3s-.43.21-.61.37"/>
      <path class="cls-14" d="M52.18,166.35c.29.16.67.31.92.1.16-.13.19-.4.06-.56-.19-.24-.61-.18-.78.07s-.1.61.08.85"/>
      <path class="cls-14" d="M65.02,163.29v.69c0,.06,0,.13.04.18.05.05.13.06.2.05.26-.03.5-.22.59-.46-.27-.07-.56-.13-.81-.01s-.38.5-.16.67c.13.1.3.08.46.06"/>
      <path class="cls-14" d="M50.84,156.72l.66-.03c.06-.15.13-.3.19-.46-.33,0-.67,0-1,0-.1.17.15.4.31.29"/>
      <path class="cls-14" d="M8.3,119.57l1.79-1.69"/>
      <path class="cls-14" d="M11.2,120.72c.16.07.37.03.49-.1-.12-.15-.33.21-.14.24"/>
      <path class="cls-14" d="M14.31,123.17c.13-1.02.55-2.01,1.19-2.81"/>
      <path class="cls-14" d="M18.33,124.06c.32-.09.56-.39.59-.72-.2-.06-.4.21-.29.39"/>
      <path class="cls-14" d="M21.46,125.95c-.13-1.27.17-2.58.85-3.66"/>
      <path class="cls-14" d="M25.28,125.78h.64c-.24-.05-.16.47.05.35"/>
      <path class="cls-14" d="M29.98,127.69c-.14-1.46.04-2.95.52-4.34"/>
      <path class="cls-14" d="M34.52,127.14c.32.34.95.27,1.19-.12-.4,0-.8-.01-1.2-.02-.18.42.44.9.8.63"/>
      <path class="cls-14" d="M40.23,130.12v-4.52"/>
      <path class="cls-14" d="M44.19,127.7c.12.6.94.91,1.43.55-.19.11-.41-.05-.61-.14s-.54.07-.41.25c.28,0,.57.02.85.03"/>
      <path class="cls-14" d="M48.72,130.47c.08-1.51.16-3.01.24-4.52"/>
      <path class="cls-14" d="M53.66,128.21c-.09.35.32.73.65.59s.33-.72-.01-.83-.68.42-.42.67c.16.18.5.13.6-.08"/>
      <path class="cls-14" d="M57.62,130.47v-3.82"/>
      <path class="cls-14" d="M62.23,128.25c.27.51,1.21.38,1.32-.19-.29,0-.59,0-.88,0,0,.16,0,.33,0,.49.17,0,.34.02.51.03"/>
      <path class="cls-14" d="M66.27,127.17c-.11,1.57.87,3.16,2.32,3.78"/>
      <path class="cls-14" d="M70.68,128.3c.34-.16.5-.62.34-.96-.38.09-.52.67-.21.92s.85,0,.86-.4"/>
      <path class="cls-14" d="M73.92,125.98c.94,1.14,1.99,2.2,3.13,3.14"/>
      <path class="cls-14" d="M80.39,126.81c.52.17,1.08-.51.82-.99-.14-.08-.32-.06-.45.03-.17.49.39,1.06.88.89"/>
      <path class="cls-14" d="M82.49,123.84c1.73,1.05,3.46,2.11,5.19,3.16"/>
      <path class="cls-14" d="M88.79,123.62c.26.1.53.19.79.11s.44-.44.26-.64c-.35.2-.33.79.02.97.22-.17.03-.6-.24-.55"/>
      <path class="cls-14" d="M91.7,121.07l3.47,2.44"/>
      <path class="cls-14" d="M7.23,120.4c.66-1.4,1.86-2.53,3.29-3.1"/>
      <path class="cls-8" d="M95.99,110.39c-.51,2.26-1.42,4.94-3.69,5.41-1.34.28-2.83-.49-3.39-1.74-.31-.7-.29-1.61.28-2.11.74-.63,2-.16,2.42.71s.22,1.93-.18,2.81c-1.09,2.39-3.59,4.07-6.21,4.17s-5.24-1.39-6.51-3.69c-.37-.68-.64-1.49-.41-2.23s1.11-1.31,1.81-.96c.67.33.79,1.23.72,1.97-.25,2.99-2.43,5.94-5.41,6.35-2.64.36-5.4-1.52-6.01-4.12-.62-2.59.99-5.52,3.51-6.38.51,2.36-.37,4.87-1.89,6.75s-3.6,3.21-5.75,4.31c-1.34.68-3.07,1.25-4.24.31-.65-.52-.92-1.37-1.12-2.17-.49-1.98-.76-4.02-.8-6.06-.01-.67.02-1.41.47-1.92.84-.95,2.61-.26,3,.95s-.23,2.53-1.06,3.5c-.82.97-1.54,2.09-2.27,3.14-.78.21-1.56.42-2.33.63-2.32.63-5.08,1.17-6.88-.42-1.83-1.61-1.61-4.49-1.09-6.88.84,0,1.67,0,2.51,0,.32,1.22-.43,2.43-1.14,3.47-1.63,2.35-3.57,4.86-6.39,5.35-2.6.46-5.42-1.25-6.21-3.77-.43-1.37-.32-2.85-.2-4.28.04-.49.1-1.01.44-1.36.72-.73,2.09.08,2.22,1.09s-.5,1.96-1.13,2.77c-1.46,1.87-3.17,3.67-5.4,4.46s-5.09.24-6.32-1.78c-.81-1.34-.78-3.01-.71-4.58.04-.92.1-1.9.67-2.61s1.87-.89,2.34-.1c.57,1.78-.9,3.42-3.48,5.91-1.77,1.7-4.81.98-7.2.43-.62-.14-1.25-.32-1.75-.72-.6-.48-.92-1.23-1.17-1.96-.71-2.12-.95-4.39-.69-6.61,1.34-.99,3.43.27,3.72,1.91s-.68,3.26-1.86,4.43c-.58.58-1.25,1.1-2.03,1.36-2.24.73-4.65-1.12-5.42-3.35s-3.93-5.61-3.49-7.93c1.48-7.72-.75-15.59.68-23.31-.09,1.06.51,2.09,1.35,2.75s1.87,1.02,2.89,1.31c1.23.34,2.48.61,3.74.8.54.08,1.1.15,1.61.36.45.19.85.49,1.27.74,2.54,1.51,5.73,1.19,8.64.69.17,1.14,1.52,1.66,2.67,1.79,2.9.33,5.9-.34,8.38-1.88.24,1.38,1.83,2.04,3.22,2.19,2.74.3,5.58-.43,7.84-2.03,3.25.14,6.51.43,9.76.57.32.01.66.03.94.18.32.17.54.49.78.76,1.22,1.34,3.34,1.52,5.03.88s3.04-1.94,4.27-3.27c1.41,1.6,3.63,2.46,5.75,2.24s4.11-1.54,5.15-3.4c2.56,1.85,6.5,1.69,9-.23.96-.74,1.75-1.71,2.8-2.31,2.36.54,4.9-.54,6.16-2.6.84,7.3,1.67,14.82-.24,21.92-.41,1.52-.94,3-1.47,4.47-.74,2.05-1.47,4.11-2.21,6.16-.33.93-.66,1.86-1.04,2.77"/>
      <path class="cls-9" d="M12.52,105.81c-.19-1.11-1.87-3.99-1-4.97.14-.18.6-.68,1.19,0,.54,1-.17,1.7.06,2.19.26-.4.8-.67,1.47-1.42.47-.37.57-.37.94-.28s.73.43.68.81c-.04.36-.38.59-.67.8-1.05.73-1.95,1.45-2.64,2.53"/>
      <path class="cls-9" d="M32.9,109.42c-.19-1.11-1.87-3.99-1-4.97.14-.18.6-.68,1.19,0,.54,1-.17,1.7.06,2.19.26-.4.8-.67,1.47-1.42.47-.37.57-.37.94-.28s.73.43.68.81c-.04.36-.38.59-.67.8-1.05.73-1.95,1.45-2.64,2.53"/>
      <path class="cls-9" d="M51.46,109.42c-.19-1.11-1.87-3.99-1-4.97.14-.18.6-.68,1.19,0,.54,1-.17,1.7.06,2.19.26-.4.8-.67,1.47-1.42.47-.37.57-.37.94-.28s.73.43.68.81c-.04.36-.38.59-.67.8-1.05.73-1.95,1.45-2.64,2.53"/>
      <path class="cls-9" d="M68.45,109.75c-.19-1.11-1.87-3.99-1-4.97.14-.18.6-.68,1.19,0,.54,1-.17,1.7.06,2.19.26-.4.8-.67,1.47-1.42.47-.37.57-.37.94-.28s.73.43.68.81c-.04.36-.38.59-.67.8-1.05.73-1.95,1.45-2.64,2.53"/>
      <path class="cls-9" d="M84.39,107.53c-.19-1.11-1.87-3.99-1-4.97.14-.18.6-.68,1.19,0,.54,1-.17,1.7.06,2.19.26-.4.8-.67,1.47-1.42.47-.37.57-.37.94-.28s.73.43.68.81c-.04.36-.38.59-.67.8-1.05.73-1.95,1.45-2.64,2.53"/>
      <path class="cls-6" d="M5.13,97.02l4.66-1.75s0,5.75-3.2,6.24"/>
      <path class="cls-6" d="M15.52,96.52s.93,9.12,4.93,9.49c3.99.37,8.12-7.62,8.12-7.62,0,0-6.39,7.37-13.05-1.87Z"/>
      <path class="cls-6" d="M35.1,99.39s.93,9.12,4.93,9.49,8.12-7.62,8.12-7.62c0,0-6.39,7.37-13.05-1.87Z"/>
      <path class="cls-6" d="M53.57,101.16s3.46,8.57,7.42,7.94c3.96-.62,5.7-9.35,5.7-9.35,0,0-4.1,8.69-13.12,1.41Z"/>
      <path class="cls-6" d="M70.66,100.2s4.22,8.26,8.1,7.33c3.89-.94,4.84-9.77,4.84-9.77,0,0-3.3,8.98-12.94,2.45Z"/>
      <path class="cls-5" d="M93.15,98.27v.12"/>
      <path class="cls-6" d="M94.33,103.9c-.39-.43-1.12-.32-1.71-.41-1.05-.17-1.79-1.07-2.26-1.97-.83-1.62-1.15-3.46-.88-5.24,1.71,1.08,3.75,1.87,5.81,2.02"/>
      <path class="cls-4" d="M86.49,93.75l.05,1.47c.73.12,1.67.15,2-.51.29-.58-.19-1.32-.8-1.54s-1.29-.08-1.93.06c-.3.07-.62.15-.79.41-.24.37.02.89.41,1.09s.85.17,1.28.13c.62-.05,1.34-.17,1.6-.73-.68-.1-1.36-.16-2.04-.19-.86-.03-2.05.38-1.85,1.22.12.53.75.75,1.28.82.6.08,1.26.09,1.76-.24s.74-1.12.32-1.56c-.57-.61-1.72-.47-2.13.26s.07,1.78.88,1.97,1.7-.55,1.67-1.38"/>
      <path class="cls-4" d="M68.16,96.36c.64.7,1.36,1.44,2.29,1.54s1.97-.9,1.51-1.73c-.15-.27-.42-.46-.7-.58-.67-.3-1.5-.32-2.11.1s-.88,1.31-.49,1.94,1.45.71,1.85.09"/>
      <path class="cls-4" d="M51.16,98.29c.73.58,1.92.49,2.52-.22s.48-1.93-.28-2.47-1.99-.24-2.37.61.23,2,1.16,2.11"/>
      <path class="cls-4" d="M31.82,95.65c.49.48,1.05.98,1.73.99s1.32-.86.87-1.37c-.16-.18-.41-.26-.65-.32-.61-.15-1.25-.23-1.88-.22-.65,0-1.49.32-1.41.97.09.72,1.13.72,1.82.51"/>
      <path class="cls-4" d="M11.88,94.07c-.2.7.42,1.47,1.15,1.55s1.44-.44,1.73-1.11.24-1.45,0-2.15c-.06-.18-.14-.36-.29-.48-.15-.12-.35-.15-.55-.17-.73-.08-1.52-.06-2.15.32s-1.05,1.2-.75,1.88c.79.46,1.82.46,2.61,0"/>
      <path class="cls-13" d="M21.66,96.31c-.19-1.11-1.87-3.99-1-4.97.14-.18.6-.68,1.19,0,.54,1-.17,1.7.06,2.19.26-.4.8-.67,1.47-1.42.47-.37.57-.37.94-.28s.73.43.68.81c-.04.36-.38.59-.67.8-1.05.73-1.95,1.45-2.64,2.53"/>
      <path class="cls-13" d="M62.06,98.28c-.19-1.11-1.87-3.99-1-4.97.14-.18.6-.68,1.19,0,.54,1-.17,1.7.06,2.19.26-.4.8-.67,1.47-1.42.47-.37.57-.37.94-.28s.73.43.68.81c-.04.36-.38.59-.67.8-1.05.73-1.95,1.45-2.64,2.53"/>
      <path class="cls-13" d="M41.04,98.28c-.19-1.11-1.87-3.99-1-4.97.14-.18.6-.68,1.19,0,.54,1-.17,1.7.06,2.19.26-.4.8-.67,1.47-1.42.47-.37.57-.37.94-.28s.73.43.68.81c-.04.36-.38.59-.67.8-1.05.73-1.95,1.45-2.64,2.53"/>
      <path class="cls-13" d="M77.19,96.31c-.19-1.11-1.87-3.99-1-4.97.14-.18.6-.68,1.19,0,.54,1-.17,1.7.06,2.19.26-.4.8-.67,1.47-1.42.47-.37.57-.37.94-.28s.73.43.68.81c-.04.36-.38.59-.67.8-1.05.73-1.95,1.45-2.64,2.53"/>
      <path class="cls-8" d="M99.75,79.06c-.51,2.26-5.53,5.5-7.8,5.97-1.34.28-2.83-.49-3.39-1.74-.31-.7-.29-1.61.28-2.11.74-.63,2-.16,2.42.71s.22,1.93-.18,2.81c-1.09,2.39-3.59,4.07-6.21,4.17s-5.24-1.39-6.51-3.69c-.37-.68-.64-1.49-.41-2.23s1.11-1.31,1.81-.96c.67.33.79,1.23.72,1.97-.25,2.99-2.43,5.94-5.41,6.35-2.64.36-5.4-1.52-6.01-4.12s.99-5.52,3.51-6.38c.51,2.36-.37,4.87-1.89,6.75s-3.6,3.21-5.75,4.31c-1.34.68-3.07,1.25-4.24.31-.65-.52-.92-1.37-1.12-2.17-.49-1.98-.76-4.02-.8-6.06-.01-.67.02-1.41.47-1.92.84-.95,2.61-.26,3,.95s-.23,2.53-1.06,3.5-1.54,2.09-2.27,3.14c-.78.21-1.56.42-2.33.63-2.32.63-5.08,1.17-6.88-.42-1.83-1.61-1.61-4.49-1.09-6.88.84,0,1.67,0,2.51,0,.32,1.22-.43,2.43-1.14,3.47-1.63,2.35-3.57,4.86-6.39,5.35-2.6.46-5.42-1.25-6.21-3.77-.43-1.37-.32-2.85-.2-4.28.04-.49.1-1.01.44-1.36.72-.73,2.09.08,2.22,1.09s-.5,1.96-1.13,2.77c-1.46,1.87-3.17,3.67-5.4,4.46-2.23.79-5.09.24-6.32-1.78-.81-1.34-.78-3.01-.71-4.58.04-.92.1-1.9.67-2.61s1.87-.89,2.34-.1c.4,2.42-1.26,4.85-3.48,5.91s-4.81.98-7.2.43c-.62-.14-1.25-.32-1.75-.72-.6-.48-.92-1.23-1.17-1.96-.71-2.12-.95-4.39-.69-6.61,1.34-.99,3.43.27,3.72,1.91s-.68,3.26-1.86,4.43c-.58.58-1.25,1.1-2.03,1.36-2.24.73-4.65-1.12-5.42-3.35s-3.53-4.22-3.08-6.54c1.29-6.76,1.25-13.26,1.84-20.12.05-.57.12-1.19.51-1.6.55-.57,1.46-.5,2.24-.37,5.72.98,11.43,3.46,17.13,2.32.6,1.4,2.48,1.71,3.97,1.43s2.98-.94,4.48-.71c1.07.16,2.01.76,3,1.17,2.76,1.13,6.09.74,8.51-1,3.57,1.23,7.62,1.37,11.16.06-.41,1.16.79,2.4,2.02,2.48s2.37-.64,3.33-1.41,1.9-1.65,3.09-2.01c3.2,2.02,7.55,2.04,10.78.06,3.1.56,6.5.81,9.2-.83.87-.53,1.6-1.25,2.46-1.8,1.88-1.21,4.6-1.96,4.93-4.17-.24,2.66.58,5.29,1.21,7.89,2.06,8.53,2.06,17.43,1.38,26.18"/>
      <path class="cls-9" d="M12.17,75.74c-.19-1.11-1.87-3.99-1-4.97.14-.18.6-.68,1.19,0,.54,1-.17,1.7.06,2.19.26-.4.8-.67,1.47-1.42.47-.37.57-.37.94-.28s.73.43.68.81c-.04.36-.38.59-.67.8-1.05.73-1.95,1.45-2.64,2.53"/>
      <path class="cls-9" d="M32.55,79.35c-.19-1.11-1.87-3.99-1-4.97.14-.18.6-.68,1.19,0,.54,1-.17,1.7.06,2.19.26-.4.8-.67,1.47-1.42.47-.37.57-.37.94-.28s.73.43.68.81c-.04.36-.38.59-.67.8-1.05.73-1.95,1.45-2.64,2.53"/>
      <path class="cls-9" d="M51.1,79.35c-.19-1.11-1.87-3.99-1-4.97.14-.18.6-.68,1.19,0,.54,1-.17,1.7.06,2.19.26-.4.8-.67,1.47-1.42.47-.37.57-.37.94-.28s.73.43.68.81c-.04.36-.38.59-.67.8-1.05.73-1.95,1.45-2.64,2.53"/>
      <path class="cls-9" d="M68.1,79.68c-.19-1.11-1.87-3.99-1-4.97.14-.18.6-.68,1.19,0,.54,1-.17,1.7.06,2.19.26-.4.8-.67,1.47-1.42.47-.37.57-.37.94-.28s.73.43.68.81c-.04.36-.38.59-.67.8-1.05.73-1.95,1.45-2.64,2.53"/>
      <path class="cls-9" d="M84.04,77.45c-.19-1.11-1.87-3.99-1-4.97.14-.18.6-.68,1.19,0,.54,1-.17,1.7.06,2.19.26-.4.8-.67,1.47-1.42.47-.37.57-.37.94-.28s.73.43.68.81c-.04.36-.38.59-.67.8-1.05.73-1.95,1.45-2.64,2.53"/>
      <path class="cls-6" d="M4.78,66.95l4.66-1.75s0,5.75-3.2,6.24"/>
      <path class="cls-6" d="M15.17,66.45s.93,9.12,4.93,9.49c3.99.37,8.12-7.62,8.12-7.62,0,0-6.39,7.37-13.05-1.87Z"/>
      <path class="cls-6" d="M34.74,69.31s.93,9.12,4.93,9.49,8.12-7.62,8.12-7.62c0,0-6.39,7.37-13.05-1.87Z"/>
      <path class="cls-6" d="M53.21,71.09s3.46,8.57,7.42,7.94,5.7-9.35,5.7-9.35c0,0-4.1,8.69-13.12,1.41Z"/>
      <path class="cls-6" d="M70.3,70.12s4.22,8.26,8.1,7.33c3.89-.94,4.84-9.77,4.84-9.77,0,0-3.3,8.98-12.94,2.45Z"/>
      <path class="cls-5" d="M92.8,68.19v.12"/>
      <path class="cls-6" d="M93.98,73.83c-.39-.43-1.12-.32-1.71-.41-1.05-.17-1.79-1.07-2.26-1.97-.83-1.62-1.15-3.46-.88-5.24,1.71,1.08,3.75,1.87,5.81,2.02"/>
      <path class="cls-4" d="M86.14,63.67l.05,1.47c.73.12,1.67.15,2-.51.29-.58-.19-1.32-.8-1.54s-1.29-.08-1.93.06c-.3.07-.62.15-.79.41-.24.37.02.89.41,1.09s.85.17,1.28.13c.62-.05,1.34-.17,1.6-.73-.68-.1-1.36-.16-2.04-.19-.86-.03-2.05.38-1.85,1.22.12.53.75.75,1.28.82.6.08,1.26.09,1.76-.24s.74-1.12.32-1.56c-.57-.61-1.72-.47-2.13.26s.07,1.78.88,1.97,1.7-.55,1.67-1.38"/>
      <path class="cls-4" d="M67.81,66.29c.64.7,1.36,1.44,2.29,1.54s1.97-.9,1.51-1.73c-.15-.27-.42-.46-.7-.58-.67-.3-1.5-.32-2.11.1s-.88,1.31-.49,1.94,1.45.71,1.85.09"/>
      <path class="cls-4" d="M50.8,68.22c.73.58,1.92.49,2.52-.22s.48-1.93-.28-2.47-1.99-.24-2.37.61.23,2,1.16,2.11"/>
      <path class="cls-4" d="M31.46,65.58c.49.48,1.05.98,1.73.99s1.32-.86.87-1.37c-.16-.18-.41-.26-.65-.32-.61-.15-1.25-.23-1.88-.22-.65,0-1.49.32-1.41.97.09.72,1.13.72,1.82.51"/>
      <path class="cls-4" d="M11.53,63.99c-.2.7.42,1.47,1.15,1.55s1.44-.44,1.73-1.11.24-1.45,0-2.15c-.06-.18-.14-.36-.29-.48-.15-.12-.35-.15-.55-.17-.73-.08-1.52-.06-2.15.32s-1.05,1.2-.75,1.88c.79.46,1.82.46,2.61,0"/>
      <path class="cls-13" d="M21.31,66.24c-.19-1.11-1.87-3.99-1-4.97.14-.18.6-.68,1.19,0,.54,1-.17,1.7.06,2.19.26-.4.8-.67,1.47-1.42.47-.37.57-.37.94-.28s.73.43.68.81c-.04.36-.38.59-.67.8-1.05.73-1.95,1.45-2.64,2.53"/>
      <path class="cls-13" d="M61.71,68.21c-.19-1.11-1.87-3.99-1-4.97.14-.18.6-.68,1.19,0,.54,1-.17,1.7.06,2.19.26-.4.8-.67,1.47-1.42.47-.37.57-.37.94-.28s.73.43.68.81c-.04.36-.38.59-.67.8-1.05.73-1.95,1.45-2.64,2.53"/>
      <path class="cls-13" d="M40.69,68.21c-.19-1.11-1.87-3.99-1-4.97.14-.18.6-.68,1.19,0,.54,1-.17,1.7.06,2.19.26-.4.8-.67,1.47-1.42.47-.37.57-.37.94-.28s.73.43.68.81c-.04.36-.38.59-.67.8-1.05.73-1.95,1.45-2.64,2.53"/>
      <path class="cls-13" d="M76.83,66.24c-.19-1.11-1.87-3.99-1-4.97.14-.18.6-.68,1.19,0,.54,1-.17,1.7.06,2.19.26-.4.8-.67,1.47-1.42.47-.37.57-.37.94-.28s.73.43.68.81c-.04.36-.38.59-.67.8-1.05.73-1.95,1.45-2.64,2.53"/>
      <path class="cls-8" d="M94.45,48.36c-.51,1.97-1.42,4.31-3.69,4.71-1.34.24-2.83-.42-3.39-1.52-.31-.61-.29-1.41.28-1.84.74-.55,2-.14,2.42.62s.22,1.68-.18,2.45c-1.09,2.08-3.59,3.54-6.21,3.63-2.62.09-5.24-1.21-6.51-3.21-.37-.59-.64-1.3-.41-1.94s1.11-1.14,1.81-.83c.67.29.79,1.07.72,1.72-.25,2.61-2.43,5.17-5.41,5.53-2.64.32-5.4-1.33-6.01-3.58s.99-4.81,3.51-5.56c.51,2.06-.37,4.24-1.89,5.88s-3.6,2.8-5.75,3.76c-1.34.59-3.07,1.09-4.24.27-.65-.45-.92-1.19-1.12-1.89-.49-1.72-.76-3.5-.8-5.27-.01-.59.02-1.23.47-1.67.84-.83,2.61-.23,3,.83s-.23,2.2-1.06,3.05-1.54,1.82-2.27,2.73c-.78.18-1.56.37-2.33.55-2.32.55-5.08,1.02-6.88-.37-1.83-1.4-1.61-3.91-1.09-5.99.84,0,1.67,0,2.51,0,.32,1.06-.43,2.12-1.14,3.02-1.63,2.04-3.57,4.23-6.39,4.66-2.6.4-5.42-1.09-6.21-3.28-.43-1.19-.32-2.48-.2-3.73.04-.42.1-.88.44-1.18.72-.63,2.09.07,2.22.95s-.5,1.71-1.13,2.41c-1.46,1.63-3.17,3.2-5.4,3.89s-5.09.21-6.32-1.55c-.81-1.17-.78-2.62-.71-3.99.04-.8.1-1.66.67-2.28s1.87-.77,2.34-.09c.4,2.11-1.26,4.22-3.48,5.15s-4.81.85-7.2.37c-.62-.12-1.25-.28-1.75-.63-.6-.42-.92-1.07-1.17-1.7-.71-1.84-.95-3.83-.69-5.76,1.34-.87,3.43.23,3.72,1.66s-.68,2.84-1.86,3.86c-.58.5-1.25.96-2.03,1.18-2.24.63-4.65-.98-5.42-2.92-.76-1.94-.33-4.06.12-6.08,1.42-6.47,3.63-12.31,9.83-16.08,6.2-3.77,13.79-5.43,21.31-6.15,8.54-.82,17.24-.49,25.6,1.21,4.63.94,8.98,1.23,13.28,2.99,6.22,2.53,15.53,3.62,17.14,9.64,1.84,6.88.08,11.7-3.67,16.71"/>
      <path class="cls-4" d="M18.18,41.06c-.17.7.36,1.47.98,1.55s1.23-.44,1.49-1.11.21-1.45,0-2.15c-.05-.18-.12-.36-.25-.48-.13-.12-.3-.15-.47-.17-.63-.08-1.3-.06-1.84.32s-.9,1.2-.64,1.88c.67.46,1.56.46,2.24,0"/>
      <path class="cls-4" d="M73.04,45c-.2.7.42,1.47,1.15,1.55s1.44-.44,1.73-1.11.24-1.45,0-2.15c-.06-.18-.14-.36-.29-.48-.15-.12-.35-.15-.55-.17-.73-.08-1.52-.06-2.15.32s-1.05,1.2-.75,1.88c.79.46,1.82.46,2.61,0"/>
      <path class="cls-4" d="M61.7,45c-.2.7.42,1.47,1.15,1.55s1.44-.44,1.73-1.11.24-1.45,0-2.15c-.06-.18-.14-.36-.29-.48-.15-.12-.35-.15-.55-.17-.73-.08-1.52-.06-2.15.32s-1.05,1.2-.75,1.88c.79.46,1.82.46,2.61,0"/>
      <path class="cls-4" d="M51.62,45c-.2.7.42,1.47,1.15,1.55s1.44-.44,1.73-1.11.24-1.45,0-2.15c-.06-.18-.14-.36-.29-.48-.15-.12-.35-.15-.55-.17-.73-.08-1.52-.06-2.15.32s-1.05,1.2-.75,1.88c.79.46,1.82.46,2.61,0"/>
      <path class="cls-4" d="M40.3,45c-.2.7.42,1.47,1.15,1.55s1.44-.44,1.73-1.11.24-1.45,0-2.15c-.06-.18-.14-.36-.29-.48-.15-.12-.35-.15-.55-.17-.73-.08-1.52-.06-2.15.32s-1.05,1.2-.75,1.88c.79.46,1.82.46,2.61,0"/>
      <path class="cls-4" d="M29.41,43.03c-.2.7.42,1.47,1.15,1.55s1.44-.44,1.73-1.11.24-1.45,0-2.15c-.06-.18-.14-.36-.29-.48-.15-.12-.35-.15-.55-.17-.73-.08-1.52-.06-2.15.32s-1.05,1.2-.75,1.88c.79.46,1.82.46,2.61,0"/>
      <path class="cls-4" d="M80.86,32.86c-.03.18.06.37.17.39s.21-.11.25-.28.03-.37,0-.54c0-.05-.02-.09-.04-.12-.02-.03-.05-.04-.08-.04-.11-.02-.22-.01-.31.08s-.15.3-.11.48c.11.12.26.12.38,0"/>
      <path class="cls-4" d="M88.32,39.11c-.2.7.42,1.47,1.15,1.55s1.44-.44,1.73-1.11.24-1.45,0-2.15c-.06-.18-.14-.36-.29-.48-.15-.12-.35-.15-.55-.17-.73-.08-1.52-.06-2.15.32s-1.05,1.2-.75,1.88c.79.46,1.82.46,2.61,0"/>
      <path class="cls-4" d="M83.34,45c-.2.7.42,1.47,1.15,1.55s1.44-.44,1.73-1.11.24-1.45,0-2.15c-.06-.18-.14-.36-.29-.48-.15-.12-.35-.15-.55-.17-.73-.08-1.52-.06-2.15.32s-1.05,1.2-.75,1.88c.79.46,1.82.46,2.61,0"/>
      <path class="cls-4" d="M41.59,25.19c-.03.14.06.3.17.32s.21-.09.25-.23.03-.3,0-.44c0-.04-.02-.07-.04-.1-.02-.02-.05-.03-.08-.03-.11-.02-.22-.01-.31.07s-.15.25-.11.39c.11.09.26.09.38,0"/>
      <path class="cls-4" d="M50.5,24.91c-.03.09.06.19.17.2s.21-.06.25-.14.03-.18,0-.27c0-.02-.02-.05-.04-.06-.02-.01-.05-.02-.08-.02-.11,0-.22,0-.31.04s-.15.15-.11.24c.11.06.26.06.38,0"/>
      <path class="cls-4" d="M60.59,26.32c-.03.18.06.37.17.39s.21-.11.25-.28.03-.37,0-.54c0-.05-.02-.09-.04-.12-.02-.03-.05-.04-.08-.04-.11-.02-.22-.01-.31.08s-.15.3-.11.48c.11.12.26.12.38,0"/>
      <path class="cls-4" d="M71.93,28.76c-.03.18.06.37.17.39s.21-.11.25-.28.03-.37,0-.54c0-.05-.02-.09-.04-.12-.02-.03-.05-.04-.08-.04-.11-.02-.22-.01-.31.08s-.15.3-.11.48c.11.12.26.12.38,0"/>
      <path class="cls-4" d="M17.44,33.37c.02.07-.04.16-.1.16s-.12-.05-.15-.12-.02-.15,0-.23c0-.02.01-.04.02-.05.01-.01.03-.02.05-.02.06,0,.13,0,.18.03s.09.13.06.2c-.07.05-.15.05-.22,0"/>
      <path class="cls-4" d="M24.97,28.48c-.03.18.06.37.17.39s.21-.11.25-.28.03-.37,0-.54c0-.05-.02-.09-.04-.12-.02-.03-.05-.04-.08-.04-.11-.02-.22-.01-.31.08s-.15.3-.11.48c.11.12.26.12.38,0"/>
      <path class="cls-4" d="M32.63,25.82c-.03.18.06.37.17.39s.21-.11.25-.28.03-.37,0-.54c0-.05-.02-.09-.04-.12-.02-.03-.05-.04-.08-.04-.11-.02-.22-.01-.31.08s-.15.3-.11.48c.11.12.26.12.38,0"/>
      <path class="cls-15" d="M24.4,35.06c-1.87-8.31-3.85-16.6-5.93-24.85"/>
      <path class="cls-17" d="M52.63,33.4c1.57-8.37,3.03-16.76,4.37-25.17"/>
      <path class="cls-11" d="M47.7,35.4c.41-8.51.71-17.02.89-25.54"/>
      <path class="cls-16" d="M40.94,33.54c-.65-8.49-1.41-16.98-2.28-25.45"/>
      <path class="cls-11" d="M31.71,35.41c.08-8.52.04-17.03-.11-25.55"/>
      <path class="cls-16" d="M83.39,37.98c1.95-8.29,3.8-16.61,5.53-24.94"/>
      <path class="cls-15" d="M76.07,37.2c1.56-8.37,3.01-16.77,4.34-25.18"/>
      <path class="cls-17" d="M67.76,37.22c1.45-8.39,2.8-16.8,4.03-25.23"/>
      <path class="cls-16" d="M62.04,33.57c.59-8.5,1.07-17,1.44-25.51"/>
      <path class="cls-7" d="M17.24,6.94l1.22,3.55"/>
      <path class="cls-7" d="M31.54,7.71l.16,2.42"/>
      <path class="cls-7" d="M38.01,6.38l.57,1.93"/>
      <path class="cls-7" d="M48.5,8.49v1.75"/>
      <path class="cls-7" d="M57.22,6.38c.03.67-.04,1.34-.21,1.99"/>
      <path class="cls-7" d="M63.05,6.26l.3,1.99"/>
      <path class="cls-7" d="M72.05,10.01c.02.69-.03,1.38-.14,2.05"/>
      <path class="cls-7" d="M80.66,10.07l-.16,2.05"/>
      <path class="cls-7" d="M89.1,10.92c.05.77.01,1.54-.13,2.3"/>
      <path class="cls-18" d="M15.64,6.63c0-.71.04-1.43.28-2.1.26-.74.74-1.47.61-2.24.4.55.8,1.09,1.2,1.64.28.38.56.77.75,1.21.45,1.01.63,2.93-.53,3.58-1.46.82-2.31-.87-2.31-2.08Z"/>
      <path class="cls-18" d="M79.31,8.17c.08-.71.22-1.42.53-2.05.35-.7.91-1.37.88-2.15.33.59.66,1.18.99,1.78.23.41.46.83.6,1.29.32,1.06.26,2.98-.96,3.48-1.54.63-2.18-1.15-2.04-2.35Z"/>
      <path class="cls-18" d="M70.84,7.89c.19-.69.43-1.37.83-1.95.45-.65,1.11-1.21,1.19-2,.24.63.48,1.27.71,1.9.17.44.33.89.4,1.36.16,1.1-.18,2.99-1.47,3.3-1.62.4-1.99-1.46-1.67-2.62Z"/>
      <path class="cls-18" d="M61.34,4.19c.09-.71.24-1.41.56-2.05.35-.7.93-1.35.91-2.14.32.6.64,1.19.97,1.79.23.42.45.84.58,1.3.3,1.07.23,2.99-1,3.47-1.55.61-2.17-1.17-2.01-2.37Z"/>
      <path class="cls-18" d="M58.7,5.06c0-.71-.04-1.43-.26-2.1-.24-.74-.69-1.47-.57-2.24-.37.55-.74,1.09-1.11,1.64-.26.38-.52.77-.7,1.21-.41,1.01-.58,2.93.49,3.58,1.35.82,2.14-.87,2.15-2.08Z"/>
      <path class="cls-18" d="M46.45,6.45c.07-.71.2-1.42.5-2.06.34-.71.89-1.38.85-2.16.34.59.68,1.17,1.02,1.76.24.41.48.83.62,1.28.33,1.06.31,2.98-.91,3.5-1.53.66-2.2-1.11-2.08-2.31Z"/>
      <path class="cls-18" d="M36.44,4.21c.1-.7.26-1.41.59-2.04.36-.7.95-1.34.93-2.13.31.6.63,1.2.94,1.8.22.42.44.85.57,1.3.29,1.07.19,2.99-1.05,3.46-1.56.59-2.15-1.2-1.98-2.4Z"/>
      <path class="cls-18" d="M33.01,5.8c0-.71-.04-1.43-.26-2.1-.24-.74-.68-1.47-.56-2.24-.37.55-.74,1.09-1.11,1.64-.26.38-.52.77-.7,1.21-.41,1.01-.58,2.93.49,3.58,1.35.82,2.14-.87,2.14-2.08Z"/>
      <path class="cls-18" d="M91.22,10.12c.14-.7.24-1.41.16-2.11-.09-.77-.38-1.57-.11-2.31-.47.46-.94.93-1.4,1.39-.33.33-.66.65-.92,1.05-.6.91-1.14,2.76-.23,3.6,1.15,1.06,2.25-.44,2.5-1.62Z"/>
      <path class="cls-10" d="M46.35,37.84c-.25.67-.62,1.3-1.08,1.84"/>
      <path class="cls-10" d="M36.97,39.99l-.95,1.21"/>
      <path class="cls-10" d="M26.38,38.47l-1.09,1.22"/>
      <path class="cls-10" d="M56.83,36.77l-.64,1.06"/>
      <path class="cls-10" d="M57.13,30.46l-.64,1.22"/>
      <path class="cls-10" d="M44.34,29.68l-.9,1.4"/>
      <path class="cls-10" d="M36.2,27.69l-1.06,1.55"/>
      <path class="cls-10" d="M29.28,26.61l-.62.46"/>
      <path class="cls-10" d="M27.26,33.22c0,.49-.15.99-.42,1.4"/>
      <path class="cls-10" d="M19.58,34.61c.06.26,0,.55-.14.77"/>
      <path class="cls-10" d="M42.22,35.38c-.09.65-.32,1.27-.65,1.83"/>
      <path class="cls-10" d="M34.03,37.53c-.05-.69.26-1.39.8-1.83"/>
      <path class="cls-10" d="M46.32,45.96l.47-.45"/>
      <path class="cls-10" d="M52.79,36.13l-.61.62"/>
      <path class="cls-10" d="M63.11,36.45l-1.23,1.69"/>
      <path class="cls-10" d="M65.85,32.74l-.46.47"/>
      <path class="cls-10" d="M67.12,39.39c-.3.26-.48.66-.49,1.06"/>
      <path class="cls-10" d="M67.57,45.22c0,.31-.18.62-.45.78"/>
      <path class="cls-10" d="M80.47,38.58c-.25.25-.4.59-.43.94"/>
      <path class="cls-10" d="M92.61,44.28l-.93,1.22"/>
      <path class="cls-10" d="M80.48,47.37l-.43.79"/>
      <path class="cls-10" d="M76.33,39.68l-.77.62"/>
      <path class="cls-10" d="M90.18,32.61l-.78.91"/>
      <path class="cls-10" d="M80.82,29.72l-.95.74"/>
      <path class="cls-10" d="M74.49,30.15l-.92.93"/>
      <path class="cls-10" d="M65.25,24.91l-.61.77"/>
      <path class="cls-10" d="M57.4,23.52l-1.06,1.24"/>
      <path class="cls-10" d="M58.63,39.37c-.16.46-.41.89-.75,1.24"/>
      <path class="cls-10" d="M52.04,38.91l-.75.94"/>
      <path class="cls-10" d="M46.83,41.68c-.06.49-.23.96-.49,1.37"/>
      <path class="cls-10" d="M22.03,44.68c-.03.54-.3,1.05-.73,1.37"/>
      <path class="cls-10" d="M21.31,49.72l-.38.86"/>
      <path class="cls-10" d="M32.95,49.72l-.72,1.38"/>
      <path class="cls-10" d="M12.79,41.89l-.83,1.24"/>
      <path class="cls-10" d="M42.37,53.55l-.7,1.56"/>
      <path class="cls-10" d="M53.82,49.53l-.68,1.05"/>
      <path class="cls-10" d="M58.03,45.21l-.68.71"/>
      <path class="cls-10" d="M60.46,35.28l-.38.86"/>
      <path class="cls-10" d="M46.05,33.21c-.27.62-.64,1.21-1.08,1.72"/>
      <path class="cls-10" d="M50.89,30.07l-.7.87"/>
      <path class="cls-10" d="M73.33,54.77c-.18.42-.49.79-.86,1.06"/>
      <path class="cls-10" d="M89.88,42.78l-1.2,1.4"/>
      <path class="cls-2" d="M7.77,46.93c-.14,14.73-2.04,31.88-2.18,46.6-.07,7.06-.06,14.45,3.2,20.71,1.01,1.95,2.76,3.95,4.94,3.72,2.26-.23,3.53-2.65,4.39-4.76"/>
      <path class="cls-2" d="M95.64,111.32c1.64-5.78,2.82-11.69,3.52-17.66,1.94-16.63-1.36-34.51-3.16-51.15"/>
    </g>
  </g>
</svg>